<svg width="24" height="24" viewBox="0 0 24 24" fill="none" xmlns="http://www.w3.org/2000/svg">
<g id="Icon 24 / female sex">
<path id="Vector" d="M9 18.1389C8.58579 18.1389 8.25 18.4747 8.25 18.8889C8.25 19.3031 8.58579 19.6389 9 19.6389V18.1389ZM15 19.6389C15.4142 19.6389 15.75 19.3031 15.75 18.8889C15.75 18.4747 15.4142 18.1389 15 18.1389V19.6389ZM11.25 22C11.25 22.4142 11.5858 22.75 12 22.75C12.4142 22.75 12.75 22.4142 12.75 22H11.25ZM16.0659 12.5659C13.8203 14.8114 10.1797 14.8114 7.93414 12.5659L6.87348 13.6265C9.70478 16.4578 14.2952 16.4578 17.1265 13.6265L16.0659 12.5659ZM7.93414 12.5659C5.68862 10.3203 5.68862 6.67965 7.93414 4.43414L6.87348 3.37348C4.04217 6.20478 4.04217 10.7952 6.87348 13.6265L7.93414 12.5659ZM7.93414 4.43414C10.1797 2.18862 13.8203 2.18862 16.0659 4.43414L17.1265 3.37348C14.2952 0.542174 9.70478 0.542175 6.87348 3.37348L7.93414 4.43414ZM16.0659 4.43414C18.3114 6.67965 18.3114 10.3203 16.0659 12.5659L17.1265 13.6265C19.9578 10.7952 19.9578 6.20478 17.1265 3.37348L16.0659 4.43414ZM9 19.6389H12V18.1389H9V19.6389ZM12 19.6389H15V18.1389H12V19.6389ZM12.75 22V18.8889H11.25V22H12.75ZM12.75 18.8889V15H11.25V18.8889H12.75Z" fill="#292826"/>
</g>
</svg>
