<svg width="24" height="24" viewBox="0 0 24 24" fill="none" xmlns="http://www.w3.org/2000/svg">
<g id="Icon 24 / pencil text">
<path id="&#244;&#129;&#149;&#141;" d="M5 9.79071C5 9.62273 5.05815 9.48059 5.17444 9.3643C5.29719 9.24155 5.44256 9.18017 5.61054 9.18017H14.1678C14.3035 9.18017 14.4197 9.20924 14.5167 9.26739L13.3925 10.3916H5.61054C5.44256 10.3916 5.29719 10.3334 5.17444 10.2171C5.05815 10.0944 5 9.95223 5 9.79071ZM5 13.2214C5 13.0598 5.05815 12.9209 5.17444 12.8046C5.29719 12.6883 5.44256 12.6302 5.61054 12.6302H11.1538L9.95215 13.8319H5.61054C5.44256 13.8319 5.29719 13.7737 5.17444 13.6575C5.05815 13.5347 5 13.3893 5 13.2214ZM5.61054 17.4564C5.44256 17.4564 5.29719 17.3982 5.17444 17.2819C5.05815 17.1592 5 17.017 5 16.8555C5 16.6875 5.05815 16.5454 5.17444 16.4291C5.29719 16.3128 5.44256 16.2547 5.61054 16.2547H6.9576C7.12558 16.2547 7.26772 16.3128 7.38401 16.4291C7.50676 16.5454 7.56814 16.6875 7.56814 16.8555C7.56814 17.017 7.50676 17.1592 7.38401 17.2819C7.26772 17.3982 7.12558 17.4564 6.9576 17.4564H5.61054ZM20.0115 8.34674L18.6644 6.98998L19.3913 6.26315C19.5528 6.10163 19.7402 6.01441 19.9534 6.00149C20.173 5.98857 20.3604 6.05964 20.5154 6.2147L20.748 6.44728C20.916 6.61526 21 6.80908 21 7.02875C21 7.24195 20.9128 7.43577 20.7383 7.61021L20.0115 8.34674ZM9.14779 18.1057C9.05734 18.1444 8.97335 18.1218 8.89582 18.0378C8.81829 17.9538 8.80214 17.8699 8.84737 17.7859L9.77771 15.8767L17.9279 7.72651L19.2944 9.07357L11.1248 17.2238L9.14779 18.1057Z" fill="#292826"/>
</g>
</svg>
