<svg width="24" height="24" viewBox="0 0 24 24" fill="none" xmlns="http://www.w3.org/2000/svg">
<g id="Icon 24 / height">
<path id="Vector" d="M22 2H15M22 10H15M22 18H15M22 6H19M22 14H19M22 22H19" stroke="#292826" stroke-width="1.5" stroke-linecap="round" stroke-linejoin="round"/>
<path id="&#244;&#128;&#179;&#190;" d="M2.06396 13.9052V9.44242C2.06396 8.84248 2.19908 8.32092 2.46933 7.87772C2.74497 7.42913 3.12331 7.08322 3.60433 6.84C4.09077 6.59138 4.65557 6.46707 5.29874 6.46707H6.46618C7.10935 6.46707 7.67145 6.59138 8.15248 6.84C8.63891 7.08322 9.01725 7.42913 9.28749 7.87772C9.56313 8.32092 9.70095 8.84248 9.70095 9.44242V13.9052C9.70095 14.1106 9.63069 14.2835 9.49017 14.4241C9.34964 14.5592 9.17939 14.6267 8.97941 14.6267C8.77943 14.6267 8.60918 14.5592 8.46866 14.4241C8.33354 14.2835 8.26598 14.1106 8.26598 13.9052V9.80724C8.26598 9.63429 8.1768 9.54781 7.99844 9.54781C7.82549 9.54781 7.73901 9.63429 7.73901 9.80724V21.2136C7.73901 21.4352 7.66064 21.6217 7.5039 21.773C7.35257 21.9243 7.1661 22 6.9445 22C6.72291 22 6.53644 21.9243 6.38511 21.773C6.23377 21.6217 6.1581 21.4352 6.1581 21.2136V14.4889C6.1581 14.4132 6.13108 14.3484 6.07703 14.2943C6.02298 14.2403 5.95813 14.2133 5.88246 14.2133C5.80679 14.2133 5.74193 14.2403 5.68789 14.2943C5.63924 14.3484 5.61492 14.4132 5.61492 14.4889V21.2136C5.61492 21.4352 5.53655 21.6217 5.37981 21.773C5.22848 21.9243 5.04201 22 4.82041 22C4.59882 22 4.40965 21.9243 4.25291 21.773C4.10158 21.6217 4.02591 21.4352 4.02591 21.2136V9.80724C4.02591 9.63429 3.93943 9.54781 3.76648 9.54781C3.58812 9.54781 3.49894 9.63429 3.49894 9.80724V13.9052C3.49894 14.1106 3.42868 14.2835 3.28815 14.4241C3.15303 14.5592 2.98548 14.6267 2.78551 14.6267C2.58553 14.6267 2.41528 14.5592 2.27475 14.4241C2.13423 14.2835 2.06396 14.1106 2.06396 13.9052ZM5.88246 5.53474C5.55817 5.53474 5.26091 5.45637 4.99067 5.29963C4.72583 5.13749 4.51234 4.924 4.3502 4.65916C4.19346 4.38892 4.11509 4.09166 4.11509 3.76737C4.11509 3.43768 4.19346 3.14041 4.3502 2.87558C4.51234 2.61074 4.72583 2.39996 4.99067 2.24322C5.26091 2.08107 5.55817 2 5.88246 2C6.20675 2 6.50131 2.08107 6.76614 2.24322C7.03638 2.39996 7.24987 2.61074 7.40661 2.87558C7.56876 3.14041 7.64983 3.43768 7.64983 3.76737C7.64983 4.09166 7.56876 4.38892 7.40661 4.65916C7.24987 4.924 7.03638 5.13749 6.76614 5.29963C6.50131 5.45637 6.20675 5.53474 5.88246 5.53474Z" fill="#292826"/>
</g>
</svg>
