<svg width="24" height="24" viewBox="0 0 24 24" fill="none" xmlns="http://www.w3.org/2000/svg">
<g id="Icon 24 / birthday">
<path id="&#244;&#129;&#150;&#170;" d="M12.0037 6.2405C11.738 6.2405 11.5091 6.13469 11.3172 5.92309C11.1302 5.71148 11.0367 5.45066 11.0367 5.14063C11.0367 4.81091 11.0884 4.53287 11.1917 4.3065C11.3 4.07521 11.4427 3.8513 11.6198 3.63477C11.738 3.50682 11.8708 3.4453 12.0185 3.45022C12.1661 3.45515 12.299 3.53142 12.4171 3.67906C12.5942 3.88574 12.7296 4.10227 12.8231 4.32864C12.9215 4.55502 12.9707 4.82568 12.9707 5.14063C12.9707 5.45066 12.8772 5.71148 12.6902 5.92309C12.5032 6.13469 12.2744 6.2405 12.0037 6.2405ZM11.5829 9.64345V5.45066H12.4023V9.64345H11.5829ZM7.18346 11.9244V11.4077C7.18346 10.6793 7.37046 10.1306 7.74446 9.76156C8.12339 9.38755 8.68194 9.20055 9.4201 9.20055H14.5873C15.3254 9.20055 15.8815 9.38755 16.2555 9.76156C16.6345 10.1306 16.8239 10.6793 16.8239 11.4077V11.9244H7.18346ZM4.6663 19.653V15.1354C4.6663 14.4071 4.85331 13.8584 5.22731 13.4893C5.60624 13.1153 6.16478 12.9283 6.90295 12.9283H17.1044C17.8426 12.9283 18.3987 13.1153 18.7727 13.4893C19.1467 13.8584 19.3337 14.4071 19.3337 15.1354V19.653H4.6663ZM11.9963 16.5379C12.1784 16.5379 12.3506 16.5822 12.513 16.6708C12.6803 16.7545 12.8501 16.8529 13.0224 16.9661C13.1995 17.0793 13.3914 17.1777 13.5981 17.2613C13.8048 17.3499 14.041 17.3942 14.3068 17.3942C14.5578 17.3942 14.7817 17.3499 14.9785 17.2613C15.1754 17.1777 15.355 17.0793 15.5174 16.9661C15.6847 16.8529 15.8446 16.7545 15.9972 16.6708C16.1547 16.5822 16.3195 16.5379 16.4917 16.5379C16.664 16.5379 16.8288 16.5822 16.9863 16.6708C17.1438 16.7545 17.316 16.8529 17.503 16.9661C17.69 17.0793 17.9066 17.1777 18.1526 17.2613C18.3987 17.3499 18.6939 17.3942 19.0384 17.3942H19.3337V16.4198H19.0384C18.7776 16.4198 18.5439 16.378 18.3372 16.2943C18.1305 16.2058 17.9336 16.1049 17.7466 15.9917C17.5596 15.8785 17.3652 15.7801 17.1635 15.6964C16.9617 15.6078 16.7378 15.5636 16.4917 15.5636C16.2408 15.5636 16.0218 15.6078 15.8348 15.6964C15.6527 15.7801 15.4829 15.8785 15.3254 15.9917C15.168 16.1049 15.008 16.2058 14.8456 16.2943C14.6882 16.378 14.5085 16.4198 14.3068 16.4198C14.0706 16.4198 13.8614 16.378 13.6793 16.2943C13.5022 16.2058 13.3324 16.1049 13.17 15.9917C13.0076 15.8785 12.8329 15.7801 12.6459 15.6964C12.4638 15.6078 12.2473 15.5636 11.9963 15.5636C11.7453 15.5636 11.5263 15.6078 11.3393 15.6964C11.1573 15.7801 10.985 15.8785 10.8226 15.9917C10.6602 16.1049 10.4904 16.2058 10.3133 16.2943C10.1361 16.378 9.92944 16.4198 9.69323 16.4198C9.49146 16.4198 9.30938 16.378 9.14698 16.2943C8.98459 16.2058 8.82465 16.1049 8.66717 15.9917C8.5097 15.8785 8.33746 15.7801 8.15046 15.6964C7.96837 15.6078 7.75431 15.5636 7.50825 15.5636C7.25727 15.5636 7.0309 15.6078 6.82914 15.6964C6.62737 15.7801 6.43299 15.8785 6.24598 15.9917C6.05898 16.1049 5.85968 16.2058 5.64807 16.2943C5.44138 16.378 5.20763 16.4198 4.94681 16.4198H4.6663V17.3942H4.94681C5.29129 17.3942 5.58655 17.3499 5.83261 17.2613C6.08359 17.1777 6.30012 17.0793 6.4822 16.9661C6.6692 16.8529 6.8439 16.7545 7.0063 16.6708C7.16869 16.5822 7.33601 16.5379 7.50825 16.5379C7.68049 16.5379 7.84289 16.5822 7.99544 16.6708C8.14799 16.7545 8.30547 16.8529 8.46787 16.9661C8.63519 17.0793 8.81727 17.1777 9.01411 17.2613C9.21096 17.3499 9.43733 17.3942 9.69323 17.3942C9.95897 17.3942 10.1927 17.3499 10.3945 17.2613C10.6012 17.1777 10.7906 17.0793 10.9629 16.9661C11.14 16.8529 11.3098 16.7545 11.4722 16.6708C11.6395 16.5822 11.8142 16.5379 11.9963 16.5379ZM4.09053 20.1697C3.92814 20.1697 3.78789 20.1107 3.66978 19.9926C3.55659 19.8745 3.5 19.7342 3.5 19.5718C3.5 19.4094 3.55659 19.2692 3.66978 19.151C3.78789 19.0379 3.92814 18.9813 4.09053 18.9813H19.9095C20.0719 18.9813 20.2097 19.0379 20.3228 19.151C20.4409 19.2692 20.5 19.4094 20.5 19.5718C20.5 19.7342 20.4409 19.8745 20.3228 19.9926C20.2097 20.1107 20.0719 20.1697 19.9095 20.1697H4.09053Z" fill="#292826"/>
</g>
</svg>
