<svg width="24" height="24" viewBox="0 0 24 24" fill="none" xmlns="http://www.w3.org/2000/svg">
<g id="State=Color">
<path id="Vector" d="M21 3H21.75C21.75 2.58579 21.4142 2.25 21 2.25V3ZM15 2.25C14.5858 2.25 14.25 2.58579 14.25 3C14.25 3.41421 14.5858 3.75 15 3.75V2.25ZM20.25 9C20.25 9.41421 20.5858 9.75 21 9.75C21.4142 9.75 21.75 9.41421 21.75 9H20.25ZM10 7.75C13.4518 7.75 16.25 10.5482 16.25 14H17.75C17.75 9.71979 14.2802 6.25 10 6.25V7.75ZM16.25 14C16.25 17.4518 13.4518 20.25 10 20.25V21.75C14.2802 21.75 17.75 18.2802 17.75 14H16.25ZM10 20.25C6.54822 20.25 3.75 17.4518 3.75 14H2.25C2.25 18.2802 5.71979 21.75 10 21.75V20.25ZM3.75 14C3.75 10.5482 6.54822 7.75 10 7.75V6.25C5.71979 6.25 2.25 9.71979 2.25 14H3.75ZM20.4697 2.46967L14.4697 8.46967L15.5303 9.53033L21.5303 3.53033L20.4697 2.46967ZM15 3.75H21V2.25H15V3.75ZM20.25 3V9H21.75V3H20.25Z" fill="#292826"/>
</g>
</svg>
