<svg width="24" height="24" viewBox="0 0 24 24" fill="none" xmlns="http://www.w3.org/2000/svg">
<circle cx="12" cy="12" r="11.5" fill="white" stroke="#CED0D7"/>
<path fill-rule="evenodd" clip-rule="evenodd" d="M12 11C12.4142 11 12.75 11.3134 12.75 11.7V17.3C12.75 17.6866 12.4142 18 12 18C11.5858 18 11.25 17.6866 11.25 17.3V11.7C11.25 11.3134 11.5858 11 12 11Z" fill="white"/>
<path d="M13.5 7.5C13.5 8.32843 12.8284 9 12 9C11.1716 9 10.5 8.32843 10.5 7.5C10.5 6.67157 11.1716 6 12 6C12.8284 6 13.5 6.67157 13.5 7.5Z" fill="#292826"/>
<path d="M12 11.5C12.1711 11.5 12.25 11.6215 12.25 11.7V17.3C12.25 17.3785 12.1711 17.5 12 17.5C11.8289 17.5 11.75 17.3785 11.75 17.3V11.7C11.75 11.6215 11.8289 11.5 12 11.5ZM13 7.5C13 8.05228 12.5523 8.5 12 8.5C11.4477 8.5 11 8.05228 11 7.5C11 6.94772 11.4477 6.5 12 6.5C12.5523 6.5 13 6.94772 13 7.5Z" stroke="#292826"/>
</svg>
